# xmcd CD database file
#
# Track frame offsets:
#	150
#	13322
#	38768
#	57572
#	73853
#	89525
#	114573
#	136896
#	156895
#	177655
#	190654
#	210007
#	231529
#	251260
#	270640
#	285005
#	307555
#	322455
#	342018
#
# Disc length: 4781 seconds
#
# Revision: 0
# Processed by: cddbd v1.5.2PL0 Copyright (c) Steve Scherf et al.
# Submitted via: CDex 1.51
#
DISCID=0f12ab13
DTITLE=Bachata Dominicana - Lo nuevo y lo mejor 2006
DYEAR=2006
DGENRE=Merengue
TTITLE0=Princesa - Frank Reyes
TTITLE1=Lloro - Antony Santos
TTITLE2=Primavera Azul - Los Toros Band
TTITLE3=La Barca - Joskar Sarante
TTITLE4=Dosis de Amor - Frank Reyes
TTITLE5=Eva Maria - Zacarias Ferreira
TTITLE6=Por tu Primer Beso - Raulin R.
TTITLE7=Perdoname la Vida - Los Toros Band
TTITLE8=Dejame Amarte Otra Vez - Antony Santos
TTITLE9=Se fue de Mi - Frank Reyes
TTITLE10=Vuelve - Herminio de la Cruz
TTITLE11=Manana en tu Olvido - Zacarias Ferreira
TTITLE12=Por que Muero - Joskar Sarante
TTITLE13=Que me la aconseje - Teodoro Reyes
TTITLE14=Te Fuiste sein decir nada - Frank Reyes
TTITLE15=Luto en mi Corazon - Aventura
TTITLE16=Solo por un Beso - Aventura
TTITLE17=Abre tu Ventana - Jaime Zabala
TTITLE18=No te busco mas - El Chaval
EXTD=YEAR: 2006
EXTT0=
EXTT1=
EXTT2=
EXTT3=
EXTT4=
EXTT5=
EXTT6=
EXTT7=
EXTT8=
EXTT9=
EXTT10=
EXTT11=
EXTT12=
EXTT13=
EXTT14=
EXTT15=
EXTT16=
EXTT17=
EXTT18=
PLAYORDER=
